<svg width="27" height="33" viewBox="0 0 27 33" fill="none" xmlns="http://www.w3.org/2000/svg">
<path d="M13.1636 0C14.9754 0 16.6778 0.432658 18.2709 1.29797C19.864 2.16329 21.2541 3.34327 22.4411 4.8379C23.6281 6.33254 24.5652 8.07628 25.2525 10.0691C25.9397 12.062 26.2833 14.199 26.2833 16.4803C26.2833 18.7616 25.9397 20.9052 25.2525 22.9112C24.5652 24.9172 23.6281 26.6675 22.4411 28.1621C21.2541 29.6567 19.864 30.8367 18.2709 31.702C16.6778 32.5673 14.9754 33 13.1636 33C11.3519 33 9.65464 32.5673 8.07195 31.702C6.48926 30.8367 5.1044 29.6567 3.91738 28.1621C2.73037 26.6675 1.79325 24.9172 1.10603 22.9112C0.418806 20.9052 0.0751953 18.7616 0.0751953 16.4803C0.0751953 14.199 0.418806 12.062 1.10603 10.0691C1.79325 8.07628 2.73037 6.33254 3.91738 4.8379C5.1044 3.34327 6.48926 2.16329 8.07195 1.29797C9.65464 0.432658 11.3519 0 13.1636 0ZM18.0991 7.19785H15.319C14.7776 7.19785 14.2778 7.31585 13.8196 7.55185C13.3615 7.78784 12.9606 8.1025 12.617 8.49583C12.2734 8.88915 12.0078 9.33492 11.8204 9.83313C11.633 10.3313 11.5393 10.8296 11.5393 11.3278V13.4124H9.07154V17.503H11.5393V25.7628H14.8192V17.503H17.2557V13.4124H14.8192V12.3504C14.8192 12.0358 14.9181 11.7867 15.116 11.6031C15.3138 11.4195 15.4856 11.3278 15.6314 11.3278H18.0991V7.19785Z" fill="#79AC78"/>
</svg>
