<svg width="28" height="33" viewBox="0 0 28 33" fill="none" xmlns="http://www.w3.org/2000/svg">
<path d="M18.3931 16.5197C18.3931 16.0729 18.3409 15.5866 18.2365 15.0609H19.5516V23.0251C19.5516 23.2354 19.4942 23.4062 19.3794 23.5376C19.2646 23.6691 19.1237 23.7348 18.9567 23.7348H8.65508C8.48808 23.7348 8.35239 23.6691 8.24802 23.5376C8.14365 23.4062 8.09146 23.2354 8.09146 23.0251V15.0609H9.37525C9.27088 15.5866 9.21869 16.0729 9.21869 16.5197C9.21869 17.3082 9.33872 18.0573 9.57878 18.767C9.81884 19.4767 10.1476 20.0878 10.5651 20.6004C10.9826 21.1129 11.4732 21.5203 12.0368 21.8226C12.6004 22.1249 13.1953 22.276 13.8215 22.276C14.4478 22.276 15.0427 22.1249 15.6063 21.8226C16.1699 21.5203 16.6553 21.1129 17.0623 20.6004C17.4694 20.0878 17.7929 19.4767 18.033 18.767C18.2731 18.0573 18.3931 17.3082 18.3931 16.5197ZM13.8215 20.1075C13.4249 20.1075 13.0492 20.0155 12.6943 19.8315C12.3394 19.6476 12.0315 19.3913 11.7706 19.0627C11.5097 18.7342 11.3062 18.353 11.16 17.9194C11.0139 17.4857 10.9408 17.0191 10.9408 16.5197C10.9408 16.0203 11.0139 15.5472 11.16 15.1004C11.3062 14.6535 11.5097 14.2658 11.7706 13.9373C12.0315 13.6087 12.3394 13.3524 12.6943 13.1685C13.0492 12.9845 13.4249 12.8925 13.8215 12.8925C14.2182 12.8925 14.5887 12.9845 14.9331 13.1685C15.2776 13.3524 15.5802 13.6087 15.8412 13.9373C16.1021 14.2658 16.3056 14.6535 16.4518 15.1004C16.5979 15.5472 16.6709 16.0203 16.6709 16.5197C16.6709 17.0191 16.5979 17.4857 16.4518 17.9194C16.3056 18.353 16.1021 18.7342 15.8412 19.0627C15.5802 19.3913 15.2776 19.6476 14.9331 19.8315C14.5887 20.0155 14.2182 20.1075 13.8215 20.1075ZM18.9567 9.30466C19.1237 9.30466 19.2646 9.37037 19.3794 9.50179C19.4942 9.63321 19.5516 9.80406 19.5516 10.0143V12.1828C19.5516 12.3931 19.4942 12.5639 19.3794 12.6953C19.2646 12.8268 19.1237 12.8925 18.9567 12.8925H17.2346C17.0676 12.8925 16.9319 12.8268 16.8275 12.6953C16.7231 12.5639 16.6709 12.3931 16.6709 12.1828V10.0143C16.6709 9.80406 16.7231 9.63321 16.8275 9.50179C16.9319 9.37037 17.0676 9.30466 17.2346 9.30466H18.9567ZM20.491 0C21.3886 0 22.2392 0.216846 23.0429 0.650538C23.8466 1.08423 24.5459 1.67563 25.1408 2.42473C25.7357 3.17384 26.2054 4.04779 26.5499 5.0466C26.8943 6.0454 27.0665 7.10992 27.0665 8.24014V24.7204C27.0665 25.8507 26.8943 26.9217 26.5499 27.9337C26.2054 28.9456 25.7357 29.8262 25.1408 30.5753C24.5459 31.3244 23.8466 31.9158 23.0429 32.3495C22.2392 32.7832 21.3886 33 20.491 33H7.4026C6.50499 33 5.65956 32.7832 4.86633 32.3495C4.07309 31.9158 3.37901 31.3244 2.78408 30.5753C2.18916 29.8262 1.71948 28.9456 1.37505 27.9337C1.03061 26.9217 0.858398 25.8507 0.858398 24.7204V8.24014C0.858398 7.10992 1.03061 6.0454 1.37505 5.0466C1.71948 4.04779 2.18916 3.17384 2.78408 2.42473C3.37901 1.67563 4.07309 1.08423 4.86633 0.650538C5.65956 0.216846 6.50499 0 7.4026 0H20.491ZM21.2738 9.30466C21.2738 8.70012 21.1068 8.18758 20.7728 7.76703C20.4388 7.34648 20.0318 7.1362 19.5516 7.1362H8.09146C7.61134 7.1362 7.20429 7.34648 6.87029 7.76703C6.5363 8.18758 6.3693 8.70012 6.3693 9.30466V23.7348C6.3693 24.3393 6.5363 24.8519 6.87029 25.2724C7.20429 25.693 7.61134 25.9032 8.09146 25.9032H19.5516C20.0318 25.9032 20.4388 25.693 20.7728 25.2724C21.1068 24.8519 21.2738 24.3393 21.2738 23.7348V9.30466Z" fill="#79AC78"/>
</svg>
