<svg width="27" height="33" viewBox="0 0 27 33" fill="none" xmlns="http://www.w3.org/2000/svg">
<path d="M19.7577 0C20.6553 0 21.5007 0.216846 22.2939 0.650538C23.0872 1.08423 23.7812 1.67563 24.3762 2.42473C24.9711 3.17384 25.4408 4.04779 25.7852 5.0466C26.1296 6.0454 26.3019 7.10992 26.3019 8.24014V24.7204C26.3019 25.8507 26.1296 26.9217 25.7852 27.9337C25.4408 28.9456 24.9711 29.8262 24.3762 30.5753C23.7812 31.3244 23.0872 31.9158 22.2939 32.3495C21.5007 32.7832 20.6553 33 19.7577 33H6.63795C5.74034 33 4.89492 32.7832 4.10168 32.3495C3.30844 31.9158 2.61436 31.3244 2.01944 30.5753C1.42451 29.8262 0.954829 28.9456 0.610397 27.9337C0.265966 26.9217 0.09375 25.8507 0.09375 24.7204V8.24014C0.09375 7.10992 0.265966 6.0454 0.610397 5.0466C0.954829 4.04779 1.42451 3.17384 2.01944 2.42473C2.61436 1.67563 3.30844 1.08423 4.10168 0.650538C4.89492 0.216846 5.74034 0 6.63795 0H19.7577ZM9.11159 12.3799H5.82384V25.7849H9.11159V12.3799ZM7.48337 11.3154C7.92174 11.3154 8.3027 11.1183 8.62626 10.724C8.94981 10.3297 9.11159 9.84349 9.11159 9.26523C9.11159 8.68698 8.94981 8.20072 8.62626 7.80645C8.3027 7.41219 7.92174 7.21505 7.48337 7.21505C7.02413 7.21505 6.63273 7.41219 6.30917 7.80645C5.98562 8.20072 5.82384 8.68698 5.82384 9.26523C5.82384 9.84349 5.98562 10.3297 6.30917 10.724C6.63273 11.1183 7.02413 11.3154 7.48337 11.3154ZM20.5718 18.0179C20.5718 17.0717 20.363 16.1452 19.9455 15.2384C19.528 14.3315 18.9853 13.6416 18.3173 13.1685C17.7119 12.7479 17.0074 12.5245 16.2038 12.4982C15.4001 12.4719 14.6747 12.6428 14.0276 13.0108V12.3799H10.7398V25.7849H14.0276V17.5842L15.374 16.7563C15.541 16.6511 15.7706 16.5986 16.0628 16.5986C16.3551 16.5986 16.5743 16.6643 16.7204 16.7957C16.8456 16.8746 16.9709 17.0454 17.0961 17.3082C17.2214 17.5711 17.284 17.8076 17.284 18.0179V25.7849H20.5718V18.0179Z" fill="#79AC78"/>
</svg>
