<svg width="27" height="27" viewBox="0 0 27 27" fill="none" xmlns="http://www.w3.org/2000/svg">
<path d="M26.7926 3.28559C26.0176 4.70495 25.1193 5.85817 24.0978 6.74527V7.67672C24.0978 9.89446 23.7631 12.1455 23.0939 14.4297C22.4246 16.714 21.447 18.7765 20.1613 20.6172C18.8755 22.458 17.2816 23.966 15.3794 25.1414C13.4772 26.3168 11.2932 26.9045 8.82734 26.9045C7.2774 26.9045 5.81553 26.6384 4.44171 26.1062C3.0679 25.5739 1.78215 24.8199 0.584473 23.8441C0.795828 23.8884 1.00718 23.9217 1.21854 23.9439C1.4299 23.966 1.64125 23.9771 1.85261 23.9771C3.12074 23.9771 4.32723 23.711 5.47207 23.1787C6.61692 22.6465 7.64727 21.9368 8.56315 21.0497C7.36547 21.0054 6.3175 20.5507 5.41923 19.6858C4.52097 18.8209 3.89571 17.7009 3.54345 16.3259C3.71958 16.4146 3.88691 16.459 4.04542 16.459H4.54739C5.04056 16.459 5.49849 16.3924 5.9212 16.2594C4.6883 15.9045 3.66674 15.1172 2.85655 13.8975C2.04635 12.6777 1.64125 11.2473 1.64125 9.60616V9.53962C2.02874 9.7614 2.41622 9.94991 2.80371 10.1051C3.19119 10.2604 3.6139 10.338 4.07184 10.338C3.36732 9.71704 2.7949 8.91866 2.35458 7.94285C1.91425 6.96704 1.69409 5.90253 1.69409 4.7493C1.69409 3.50736 1.94067 2.37632 2.43383 1.35615C3.77242 3.39648 5.39281 5.0487 7.29502 6.31281C9.19722 7.57692 11.2579 8.27551 13.4772 8.40858C13.3715 7.87632 13.3187 7.36624 13.3187 6.87833C13.3187 5.94688 13.4596 5.07087 13.7414 4.25031C14.0232 3.42974 14.4107 2.70898 14.9038 2.08801C15.397 1.46704 15.9694 0.979138 16.6211 0.624299C17.2728 0.26946 17.9685 0.092041 18.7082 0.092041C19.4832 0.092041 20.2053 0.280549 20.8746 0.657565C21.5439 1.03458 22.1251 1.55575 22.6183 2.22107C23.2524 2.08801 23.8512 1.87732 24.4148 1.58902C24.9784 1.30071 25.5244 0.95696 26.0528 0.557767C25.6301 2.1989 24.8375 3.46301 23.6751 4.35011C24.8023 4.12833 25.8415 3.77349 26.7926 3.28559Z" fill="#79AC78"/>
</svg>
