<svg width="55" height="44" viewBox="0 0 55 44" fill="none" xmlns="http://www.w3.org/2000/svg">
<path d="M54.4207 5.15137C52.8147 7.437 50.9516 9.29514 48.8316 10.7258L48.8344 12.2237C48.8412 15.7902 48.1527 19.4115 46.7689 23.0877C45.3851 26.7638 43.3601 30.0846 40.694 33.0498C38.0278 36.0151 34.7202 38.4467 30.771 40.3444C26.8218 42.2422 22.2853 43.1959 17.1613 43.2057C13.9405 43.2118 10.9019 42.7896 8.04555 41.9391C5.18915 41.0885 2.51507 39.881 0.0233064 38.3165C0.462638 38.387 0.901935 38.4396 1.3412 38.4745C1.78046 38.5093 2.21969 38.5263 2.65889 38.5254C5.29406 38.5204 7.80033 38.0877 10.1777 37.2272C12.555 36.3667 14.6939 35.2214 16.5944 33.7911C14.1055 33.7245 11.9264 32.9975 10.0572 31.6102C8.18797 30.2228 6.88526 28.4241 6.14906 26.2143C6.51533 26.3563 6.86316 26.4269 7.19256 26.4263L8.23565 26.4243C9.26044 26.4224 10.2118 26.3136 11.0898 26.0979C8.52675 25.5321 6.40156 24.2701 4.71425 22.3117C3.02694 20.3533 2.18077 18.0545 2.17575 15.4153L2.17555 15.3083C2.98142 15.6634 3.78719 15.965 4.59286 16.2132C5.39852 16.4613 6.27715 16.5844 7.22874 16.5826C5.76286 15.5868 4.57093 14.3051 3.65295 12.7376C2.73498 11.1701 2.27423 9.45901 2.2707 7.60443C2.2669 5.60718 2.77584 3.78729 3.79751 2.14474C6.58532 5.42065 9.95754 8.07129 13.9142 10.0967C17.8708 12.1221 22.1551 13.2374 26.7671 13.4426C26.5458 12.5871 26.4345 11.767 26.433 10.9824C26.4301 9.48442 26.7203 8.07509 27.3033 6.75437C27.8864 5.43365 28.6894 4.273 29.7123 3.27243C30.7352 2.27186 31.9232 1.48496 33.2763 0.911746C34.6294 0.338529 36.0745 0.05046 37.6117 0.0475374C39.2221 0.0444756 40.7233 0.344776 42.1152 0.948439C43.5072 1.5521 44.7165 2.38793 45.7434 3.45594C47.0605 3.23944 48.3043 2.89826 49.4746 2.43239C50.6449 1.96651 51.7784 1.41155 52.8752 0.767487C52.0018 3.40838 50.3587 5.44442 47.9459 6.87561C50.2876 6.51451 52.4458 5.93976 54.4207 5.15137Z" fill="white"/>
</svg>
